<svg width="566" height="388" viewBox="0 0 566 388" fill="none" xmlns="http://www.w3.org/2000/svg">
<g clip-path="url(#clip0_225_1949)">
<path d="M167.451 62.347C184.537 62.347 198.388 48.4655 198.388 31.3419C198.388 14.2183 184.537 0.336853 167.451 0.336853C150.364 0.336853 136.513 14.2183 136.513 31.3419C136.513 48.4655 150.364 62.347 167.451 62.347Z" fill="#F6C100"/>
<path d="M223.281 7.55337C208.288 5.52227 191.17 13.6441 187.284 28.2985C186.304 25.693 184.524 23.4669 182.199 21.9419C179.875 20.4169 177.127 19.6719 174.352 19.8146C171.578 19.9573 168.92 20.9802 166.764 22.7357C164.607 24.4911 163.064 26.8881 162.355 29.5805L164.072 30.8126C196.203 37.7761 229.464 37.6254 261.531 30.371C251.101 19.3861 238.275 9.58444 223.281 7.55337Z" fill="white"/>
<path d="M158.979 48.8934C143.986 46.8623 126.868 54.9842 122.982 69.6386C122.003 67.033 120.222 64.807 117.898 63.2819C115.573 61.7569 112.825 61.012 110.051 61.1547C107.276 61.2973 104.619 62.3203 102.462 64.0757C100.306 65.8312 98.7618 68.2282 98.0537 70.9205L99.7703 72.1526C131.901 79.1162 165.162 78.9655 197.229 71.7111C186.8 60.7262 173.973 50.9245 158.979 48.8934Z" fill="white"/>
<path d="M446.745 387.013C443.627 383.067 442.353 382.143 439.278 378.161C414.236 345.703 390.699 312.149 368.667 277.498C353.702 253.965 339.478 229.979 325.997 205.542C319.579 193.924 313.337 182.215 307.271 170.415C302.564 161.266 297.962 152.061 293.464 142.802C292.178 140.158 290.929 137.501 289.685 134.838C286.755 128.577 283.88 122.284 280.792 116.108C277.274 109.068 272.991 101.687 266.53 96.9574C263.59 94.7166 260.074 93.3607 256.394 93.0484C251.134 92.7079 246.281 94.8843 241.719 97.2614C208.343 114.703 177.096 136.571 148.834 161.454C120.499 186.393 95.1726 214.568 73.3703 245.405C72.7033 246.359 71.126 245.447 71.7993 244.487C74.4503 240.73 77.1538 237.013 79.9099 233.337C114.18 187.66 156.199 148.38 204.048 117.293C212.098 112.065 220.3 107.082 228.653 102.344C232.863 99.9546 237.091 97.5958 241.392 95.3829C245.608 93.2125 250.085 91.261 254.901 91.1881C271.292 90.9327 279.779 109.536 285.609 122.053C287.44 125.993 289.295 129.92 291.171 133.835C298.263 148.699 305.627 163.428 313.264 178.02C317.978 187.03 322.794 195.987 327.714 204.892C343.025 232.62 359.299 259.787 376.535 286.392C399.368 321.635 422.019 352.767 448.031 385.724C448.747 386.636 447.467 387.937 446.745 387.013Z" fill="#9FE0D9"/>
<path d="M147.214 152.268C146.262 151.204 145.316 150.14 144.357 149.076C136.799 140.699 128.688 132.419 118.309 127.616C113.36 125.254 107.957 123.999 102.476 123.938C96.8103 123.956 91.2719 125.446 86.0369 127.531C83.5618 128.522 81.1413 129.647 78.7574 130.844C76.0336 132.218 73.3583 133.683 70.6954 135.161C65.6968 137.933 60.7629 140.827 55.894 143.842C46.2061 149.842 36.8217 156.301 27.7406 163.217C23.0331 166.804 18.4227 170.508 13.9095 174.33C9.71176 177.881 5.59891 181.526 1.57097 185.267C0.709616 186.064 -0.576466 184.775 0.284862 183.978C1.34645 182.987 2.42016 182.003 3.49388 181.03C6.52698 178.282 9.60866 175.587 12.7389 172.944C18.447 168.117 24.3029 163.476 30.3066 159.022C39.6426 152.092 49.2999 145.631 59.2787 139.641C64.2652 136.65 69.3204 133.785 74.4442 131.045C75.9912 130.218 77.5564 129.409 79.1396 128.643C82.732 126.827 86.4646 125.305 90.3013 124.09C95.7361 122.328 101.486 121.762 107.159 122.43C112.637 123.229 117.914 125.058 122.713 127.823C132.904 133.531 140.808 142.359 148.5 150.973C149.277 151.849 147.997 153.143 147.214 152.268Z" fill="#9FE0D9"/>
<path d="M356.027 239.081L380.448 230.129L392.572 225.685C396.521 224.237 400.461 222.59 404.543 221.553C408.152 220.637 411.819 220.487 415.378 221.692C418.517 222.856 421.391 224.642 423.828 226.942C426.318 229.24 428.635 231.719 430.76 234.36C433.4 237.539 436 240.752 438.613 243.954C449.395 257.169 460.107 270.441 470.748 283.771C481.389 297.101 491.959 310.487 502.458 323.93C512.982 337.405 523.434 350.937 533.814 364.526C535.085 366.19 536.356 367.856 537.625 369.522C538.326 370.443 539.907 369.535 539.196 368.602C528.74 354.877 518.211 341.208 507.609 327.595C496.981 313.95 486.28 300.363 475.505 286.833C464.73 273.304 453.883 259.834 442.962 246.422C440.242 243.08 437.517 239.743 434.787 236.409C432.485 233.597 430.208 230.754 427.683 228.136C423.047 223.332 417.256 219.086 410.323 218.97C406.247 218.903 402.302 220.199 398.515 221.572C394.433 223.052 390.36 224.56 386.282 226.055L361.691 235.069L355.543 237.322C354.452 237.722 354.924 239.485 356.027 239.081Z" fill="#9FE0D9"/>
<path d="M75.2665 140.981L72.8774 142.927C73.6856 142.246 74.5256 141.607 75.3887 141.003C75.3479 140.996 75.3073 140.988 75.2665 140.981Z" fill="white"/>
<path d="M422.909 239.17C420.505 236.238 417.906 233.167 414.31 231.976L410.953 232.109C436.508 277.362 471.02 316.904 512.373 348.308C482.552 311.929 452.73 275.55 422.909 239.17Z" fill="white"/>
<path d="M172.916 353.714C174.285 342.684 181.106 331.816 191.602 328.227C187.463 339.58 187.464 352.034 191.605 363.387C193.218 367.759 195.466 372.454 193.949 376.86C193.005 379.602 190.696 381.7 188.114 383.012C185.533 384.324 182.668 384.949 179.839 385.561L179.282 386.023C174.791 375.86 171.548 364.744 172.916 353.714Z" fill="white"/>
<path d="M191.707 328.435C185.594 335.299 181.795 343.919 180.849 353.07C180.61 355.036 180.682 357.028 181.063 358.972C181.494 360.854 182.421 362.585 183.746 363.986C184.955 365.318 186.346 366.54 187.211 368.143C187.642 368.97 187.893 369.879 187.949 370.81C188.004 371.741 187.863 372.674 187.534 373.547C186.77 375.743 185.264 377.532 183.731 379.231C182.029 381.118 180.231 383.05 179.507 385.551C179.42 385.854 178.956 385.7 179.043 385.397C180.302 381.046 184.517 378.575 186.527 374.656C187.464 372.827 187.858 370.704 186.979 368.774C186.21 367.086 184.777 365.825 183.541 364.487C182.228 363.139 181.265 361.489 180.735 359.682C180.257 357.764 180.109 355.778 180.296 353.81C180.646 349.372 181.69 345.017 183.39 340.905C185.305 336.2 188.008 331.859 191.383 328.068C191.592 327.833 191.914 328.202 191.707 328.435Z" fill="white"/>
<path d="M180.98 350.106C179.47 349.738 178.139 348.844 177.225 347.584C176.311 346.324 175.874 344.779 175.992 343.226C176.017 342.912 176.505 342.936 176.481 343.251C176.368 344.697 176.775 346.136 177.629 347.307C178.482 348.479 179.725 349.306 181.134 349.64C181.44 349.713 181.284 350.178 180.98 350.106Z" fill="white"/>
<path d="M183.044 363.392C185.772 361.76 187.786 359.157 188.684 356.102C188.772 355.8 189.236 355.954 189.148 356.256C188.207 359.433 186.106 362.137 183.263 363.83C182.992 363.991 182.774 363.553 183.044 363.392Z" fill="white"/>
<path d="M185.758 336.665C186.313 336.929 186.925 337.051 187.538 337.02C188.152 336.988 188.748 336.805 189.273 336.486C189.542 336.321 189.76 336.76 189.493 336.923C188.911 337.273 188.252 337.475 187.574 337.511C186.897 337.547 186.22 337.416 185.605 337.13C185.544 337.108 185.495 337.063 185.466 337.006C185.437 336.948 185.431 336.882 185.449 336.82C185.47 336.759 185.514 336.708 185.572 336.679C185.629 336.65 185.696 336.645 185.758 336.665Z" fill="white"/>
<path d="M223.597 347.928C223.432 348.035 223.267 348.143 223.102 348.254C220.891 349.711 218.802 351.346 216.856 353.141C216.703 353.278 216.551 353.418 216.402 353.559C211.759 357.936 207.966 363.138 205.218 368.902C204.126 371.197 203.211 373.571 202.479 376.005C201.468 379.366 200.639 383.092 198.638 385.841C198.432 386.13 198.209 386.406 197.969 386.668H179.887C179.846 386.647 179.805 386.631 179.764 386.61L179.042 386.643C179.071 386.515 179.104 386.383 179.133 386.254C179.149 386.18 179.17 386.106 179.186 386.031C179.198 385.982 179.211 385.932 179.219 385.886C179.223 385.87 179.227 385.853 179.232 385.841C179.24 385.796 179.252 385.754 179.261 385.713C179.442 384.973 179.629 384.233 179.822 383.493C179.822 383.488 179.822 383.489 179.826 383.484C181.239 377.831 183.316 372.366 186.014 367.203C186.096 367.05 186.179 366.893 186.27 366.74C187.519 364.454 188.952 362.275 190.556 360.224C191.438 359.103 192.375 358.028 193.366 357.003C195.929 354.359 198.891 352.135 202.144 350.413C208.63 346.981 216.138 345.666 223.069 347.763C223.246 347.816 223.42 347.87 223.597 347.928Z" fill="white"/>
<path d="M223.556 348.158C214.552 349.95 206.34 354.54 200.087 361.276C198.716 362.702 197.577 364.336 196.713 366.117C195.927 367.88 195.626 369.821 195.842 371.74C196.008 373.533 196.385 375.347 196.112 377.149C195.959 378.07 195.614 378.947 195.099 379.724C194.584 380.501 193.911 381.161 193.123 381.659C191.194 382.951 188.917 383.472 186.672 383.903C184.18 384.382 181.583 384.84 179.503 386.401C179.251 386.59 178.973 386.187 179.225 385.998C182.844 383.283 187.694 383.853 191.653 381.937C193.5 381.043 195.09 379.585 195.548 377.513C195.948 375.701 195.561 373.83 195.378 372.016C195.14 370.148 195.362 368.249 196.025 366.487C196.795 364.667 197.87 362.992 199.201 361.533C202.147 358.201 205.597 355.354 209.425 353.096C213.78 350.495 218.546 348.66 223.519 347.669C223.827 347.608 223.862 348.097 223.556 348.158Z" fill="white"/>
<path d="M201.973 358.988C200.988 357.783 200.462 356.267 200.49 354.709C200.517 353.152 201.096 351.655 202.124 350.486C202.332 350.25 202.708 350.564 202.499 350.8C201.54 351.887 201.001 353.281 200.978 354.732C200.956 356.182 201.451 357.593 202.375 358.709C202.576 358.952 202.173 359.23 201.973 358.988Z" fill="white"/>
<path d="M195.639 370.842C198.798 371.185 201.969 370.321 204.521 368.425C204.774 368.236 205.052 368.639 204.8 368.827C202.14 370.796 198.838 371.688 195.551 371.324C195.238 371.289 195.327 370.807 195.639 370.842Z" fill="white"/>
<path d="M213.863 351.139C214.147 351.685 214.562 352.151 215.071 352.497C215.58 352.842 216.166 353.055 216.777 353.117C217.09 353.148 217.001 353.63 216.69 353.599C216.015 353.528 215.368 353.291 214.805 352.911C214.242 352.531 213.781 352.018 213.461 351.418C213.426 351.364 213.413 351.299 213.425 351.235C213.436 351.172 213.471 351.116 213.523 351.077C213.576 351.041 213.642 351.027 213.706 351.038C213.769 351.05 213.826 351.086 213.863 351.139Z" fill="white"/>
<path d="M304.384 293.781C295.515 274.12 295.842 249.199 309.607 232.609C314.212 255.614 326.788 276.246 345.11 290.853C352.197 296.461 360.661 301.958 362.597 310.797C363.802 316.297 362.094 322.114 359.143 326.904C356.191 331.695 352.076 335.636 348.008 339.519L347.551 340.849C329.85 328.566 313.253 313.441 304.384 293.781Z" fill="white"/>
<path d="M309.99 232.849C306.794 250.418 309.203 268.55 316.875 284.67C318.465 288.169 320.596 291.396 323.188 294.23C325.803 296.91 329.086 298.839 332.696 299.816C336.044 300.796 339.581 301.41 342.633 303.188C344.182 304.121 345.516 305.372 346.548 306.858C347.581 308.345 348.288 310.033 348.624 311.813C349.575 316.225 348.888 320.717 348.064 325.086C347.148 329.938 346.121 334.962 347.447 339.839C347.608 340.43 346.684 340.645 346.523 340.055C344.216 331.57 348.702 323.202 348.075 314.671C347.783 310.691 346.291 306.775 342.886 304.468C339.908 302.452 336.26 301.816 332.862 300.853C329.326 299.951 326.065 298.195 323.363 295.738C320.634 293.045 318.383 289.907 316.706 286.456C312.805 278.75 310.139 270.476 308.803 261.939C307.224 252.204 307.319 242.271 309.083 232.568C309.192 231.968 310.098 232.252 309.99 232.849Z" fill="white"/>
<path d="M314.1 279.625C311.226 280.548 308.119 280.417 305.333 279.256C302.547 278.095 300.264 275.979 298.891 273.287C298.615 272.741 299.448 272.286 299.724 272.832C300.998 275.342 303.126 277.312 305.722 278.388C308.319 279.464 311.213 279.574 313.884 278.699C314.464 278.51 314.677 279.437 314.1 279.625Z" fill="white"/>
<path d="M330.933 299.544C333.804 294.073 334.512 287.719 332.916 281.748C332.758 281.156 333.682 280.941 333.84 281.532C335.49 287.748 334.739 294.359 331.739 300.046C331.453 300.588 330.648 300.083 330.933 299.544Z" fill="white"/>
<path d="M308.444 252.513C309.63 252.389 310.767 251.97 311.752 251.296C312.736 250.623 313.539 249.714 314.087 248.653C314.366 248.107 315.17 248.613 314.893 249.155C314.282 250.324 313.394 251.327 312.308 252.074C311.221 252.821 309.969 253.29 308.66 253.439C308.538 253.464 308.411 253.441 308.305 253.375C308.199 253.309 308.122 253.205 308.09 253.085C308.062 252.962 308.084 252.833 308.15 252.726C308.216 252.619 308.322 252.543 308.444 252.513Z" fill="white"/>
<path d="M382.501 232.802C382.336 233.147 382.171 233.492 382.011 233.845C379.819 238.5 378.009 243.325 376.598 248.274C376.482 248.655 376.371 249.043 376.267 249.426C372.994 261.385 371.964 273.85 373.231 286.185C373.739 291.094 374.62 295.956 375.864 300.73C377.583 307.324 379.971 314.336 379.432 320.92C379.384 321.607 379.293 322.291 379.16 322.967L349.205 341.304C349.116 341.311 349.031 341.325 348.941 341.333L347.779 342.12C347.698 341.878 347.618 341.626 347.537 341.384C347.489 341.244 347.448 341.1 347.4 340.96C347.371 340.865 347.341 340.77 347.309 340.687C347.299 340.655 347.289 340.623 347.283 340.599C347.251 340.515 347.23 340.434 347.202 340.357C346.755 338.947 346.318 337.531 345.89 336.11C345.886 336.103 345.886 336.103 345.888 336.092C342.652 325.255 340.291 314.051 339.701 302.845C339.683 302.507 339.661 302.164 339.657 301.818C339.419 296.765 339.594 291.701 340.179 286.677C340.509 283.927 340.977 281.195 341.582 278.492C343.158 271.512 345.821 264.823 349.471 258.672C356.75 246.411 367.861 236.619 381.459 233.063C381.807 232.972 382.149 232.885 382.501 232.802Z" fill="white"/>
<path d="M382.666 233.224C369.559 245.324 360.589 261.255 357.031 278.754C356.199 282.508 355.961 286.369 356.329 290.197C356.807 293.914 358.269 297.435 360.564 300.394C362.648 303.196 365.104 305.82 366.473 309.082C367.149 310.761 367.463 312.565 367.394 314.375C367.325 316.185 366.876 317.96 366.075 319.583C364.183 323.68 360.936 326.852 357.653 329.843C354.008 333.164 350.169 336.556 348.298 341.25C348.072 341.819 347.204 341.433 347.431 340.865C350.685 332.698 359.295 328.724 363.919 321.534C366.077 318.18 367.239 314.153 365.905 310.257C364.739 306.85 362.209 304.141 360.074 301.322C357.793 298.468 356.243 295.098 355.562 291.506C355.001 287.71 355.09 283.845 355.823 280.079C357.339 271.572 360.18 263.357 364.242 255.734C368.83 247.009 374.873 239.135 382.11 232.452C382.559 232.039 383.111 232.813 382.666 233.224Z" fill="white"/>
<path d="M357.846 273.052C354.997 272.055 352.595 270.076 351.068 267.468C349.541 264.86 348.989 261.793 349.51 258.814C349.618 258.212 350.557 258.351 350.449 258.954C349.958 261.727 350.473 264.584 351.9 267.009C353.327 269.435 355.572 271.27 358.23 272.182C358.807 272.381 358.42 273.25 357.846 273.052Z" fill="white"/>
<path d="M359.32 299.113C364.899 296.477 369.282 291.831 371.595 286.1C371.823 285.532 372.691 285.918 372.462 286.485C370.045 292.444 365.474 297.27 359.662 300C359.108 300.26 358.769 299.371 359.32 299.113Z" fill="white"/>
<path d="M369.618 247.992C370.64 248.608 371.799 248.96 372.99 249.016C374.181 249.072 375.367 248.831 376.443 248.314C376.993 248.047 377.332 248.936 376.785 249.201C375.594 249.767 374.283 250.032 372.967 249.972C371.651 249.913 370.369 249.532 369.234 248.862C369.122 248.808 369.034 248.713 368.989 248.596C368.944 248.48 368.945 248.35 368.992 248.235C369.044 248.12 369.138 248.03 369.255 247.984C369.373 247.939 369.503 247.942 369.618 247.992Z" fill="white"/>
<path d="M440.111 316.546L473.805 290.91L490.228 307.369L435.338 345.013L440.111 316.546Z" fill="#3B4544"/>
<path d="M408.686 387.137H293.427L297.47 374.011C322.524 364.921 308.451 345.383 332.284 333.441C390.577 304.231 413.144 217.065 404.608 182.608L442.809 180.99C442.809 180.99 495.564 331.133 408.686 387.137Z" fill="#3B4544"/>
<path d="M507.084 325.433C503.642 328.467 499.237 330.179 494.653 330.265C490.069 330.351 485.604 328.805 482.05 325.902L481.975 325.841L481.973 325.744C481.931 324.136 481.681 322.54 481.229 320.996C481.206 322.108 481.044 323.212 480.747 324.283L480.651 324.643L480.392 324.375C480.168 324.144 479.952 323.909 479.749 323.678C478.553 322.318 477.551 320.798 476.773 319.162C473.046 311.48 467.646 304.734 460.971 299.422C459.779 298.451 458.67 297.382 457.656 296.226C453.37 291.339 450.96 285.083 450.857 278.577C450.754 272.072 452.965 265.743 457.094 260.722C461.223 255.702 467.001 252.318 473.392 251.178C479.783 250.037 486.371 251.214 491.976 254.497L492.147 254.597L492.058 254.774C491.409 256.124 490.552 257.364 489.518 258.446C490.939 257.677 492.254 256.725 493.43 255.614L493.554 255.497L493.695 255.594C495.536 256.87 497.214 258.367 498.693 260.052L498.852 260.235C499.98 261.529 501.368 262.569 502.925 263.289C504.481 264.009 506.172 264.392 507.886 264.413C510.683 264.461 513.437 265.114 515.958 266.33C518.478 267.546 520.706 269.294 522.489 271.455C524.271 273.616 525.565 276.138 526.281 278.848C526.998 281.558 527.12 284.391 526.64 287.153L526.618 287.281L526.494 287.319C524.32 288.067 522.015 288.355 519.725 288.165C521.637 289 523.675 289.511 525.754 289.678L526.022 289.7L525.937 289.956C524.854 293.216 522.926 296.128 520.351 298.396L520.278 298.461C520.252 298.484 520.226 298.507 520.2 298.529C518.281 300.185 516.711 302.208 515.583 304.48C514.455 306.752 513.791 309.227 513.629 311.759C513.502 314.36 512.857 316.91 511.733 319.258C510.609 321.606 509.029 323.705 507.084 325.433Z" fill="#2B877D"/>
<path opacity="0.15" d="M510.61 319.193C510.575 319.892 510.502 320.589 510.392 321.28C512.28 318.375 513.366 315.021 513.54 311.559C513.565 311.029 513.621 310.501 513.695 309.975C511.861 312.715 510.796 315.899 510.61 319.193Z" fill="#061312"/>
<path opacity="0.15" d="M516.705 295.599C518.244 296.267 519.864 296.726 521.523 296.965C522.162 296.288 522.752 295.567 523.288 294.806C521.171 295.516 518.931 295.786 516.705 295.599Z" fill="#061312"/>
<path opacity="0.15" d="M523.805 289.225C523.977 290.903 523.93 292.596 523.667 294.262C524.586 292.861 525.319 291.346 525.848 289.756L525.933 289.5L525.664 289.478C525.041 289.425 524.42 289.34 523.805 289.225Z" fill="#061312"/>
<path opacity="0.15" d="M522.013 270.801C520.23 268.774 518.045 267.141 515.597 266.007C513.149 264.872 510.493 264.262 507.797 264.213C506.082 264.192 504.392 263.809 502.835 263.089C501.278 262.369 499.89 261.329 498.762 260.035L498.603 259.852C497.124 258.167 495.446 256.67 493.605 255.394L493.464 255.296L493.34 255.414C492.165 256.524 490.849 257.477 489.428 258.246C490.462 257.164 491.319 255.924 491.968 254.574L492.057 254.397L491.886 254.297C488.17 252.118 483.993 250.849 479.696 250.596C475.398 250.343 471.101 251.111 467.156 252.839C463.211 254.566 459.73 257.204 456.996 260.537C454.262 263.869 452.353 267.803 451.424 272.016C453.212 268.868 455.606 266.107 458.466 263.893C461.327 261.679 464.598 260.056 468.089 259.118C471.58 258.18 475.222 257.946 478.804 258.429C482.386 258.912 485.837 260.102 488.956 261.931L489.127 262.031L489.038 262.209C488.389 263.559 487.532 264.798 486.498 265.881C487.92 265.111 489.235 264.159 490.41 263.048L490.534 262.931L490.675 263.028C492.516 264.304 494.195 265.802 495.673 267.486L495.832 267.669C496.961 268.963 498.348 270.004 499.905 270.724C501.462 271.443 503.152 271.826 504.867 271.848C509.349 271.924 513.667 273.555 517.083 276.465C520.499 279.374 522.802 283.381 523.6 287.802C524.548 287.632 525.484 287.404 526.404 287.119L526.528 287.081L526.55 286.953C527.053 284.092 526.906 281.154 526.121 278.358C525.335 275.562 523.931 272.979 522.013 270.801Z" fill="#061312"/>
<path d="M562.792 190.873C562.791 205.667 557.554 219.981 548.014 231.27C538.474 242.559 525.248 250.092 510.688 252.529L510.38 252.579L510.142 252.38C506.172 249.062 501.79 246.275 497.105 244.087C499.738 246.505 502.057 249.245 504.009 252.242L504.674 253.242L503.477 253.3C502.444 253.35 501.417 253.376 500.426 253.376C494.603 253.381 488.807 252.575 483.205 250.982C457.756 243.726 430.427 242.485 401.979 247.294C397.101 248.116 392.163 248.529 387.217 248.528C338.71 248.528 299.247 208.971 299.247 160.349C299.22 141.811 305.034 123.738 315.859 108.705C326.684 93.6723 341.967 82.4478 359.531 76.6313L360.136 76.4306L360.375 77.0221C362.252 81.4658 363.418 86.178 363.832 90.9856C364.998 85.9049 365.498 80.6934 365.318 75.4831L365.299 74.933L365.832 74.7989C372.827 73.0519 380.008 72.1691 387.217 72.1702L387.997 72.1734C393.517 72.1899 398.979 71.0402 404.026 68.7993C409.073 66.5584 413.593 63.2767 417.289 59.168C423.351 52.4912 430.784 47.2097 439.077 43.6867C447.37 40.1638 456.326 38.4831 465.329 38.7602C474.332 39.0373 483.168 41.2658 491.23 45.2922C499.291 49.3185 506.387 55.0473 512.028 62.0844L512.291 62.4103L512.118 62.7922C508.474 70.8408 504.504 76.7044 499.766 80.9924C505.846 78.1337 511.412 74.2849 516.237 69.6024L516.86 68.9971L517.297 69.7487C522.857 79.305 525.785 90.17 525.781 101.232L525.78 101.548C525.779 101.659 525.779 101.771 525.779 101.882C525.779 118.804 532.309 134.843 543.723 145.936C549.727 151.776 554.506 158.76 557.781 166.477C561.055 174.193 562.759 182.488 562.792 190.873Z" fill="#2B877D"/>
<g opacity="0.15">
<path d="M486.546 43.1678C484.396 46.7442 481.751 49.9968 478.689 52.8284C483.073 50.7656 487.195 48.1838 490.966 45.1382C489.519 44.424 488.046 43.7672 486.546 43.1678Z" fill="#061312"/>
<path d="M522.646 117.772C526.038 121.07 529.047 124.743 531.614 128.72C527.75 120.304 525.759 111.146 525.779 101.882C525.779 101.771 525.779 101.659 525.78 101.548L525.781 101.232C525.785 90.17 522.857 79.3051 517.297 69.7487L516.86 68.997L516.237 69.6024C512.799 72.9331 508.981 75.8466 504.863 78.2827C505.924 93.4995 512.264 107.682 522.646 117.772Z" fill="#061312"/>
<path d="M504.704 73.0683L504.703 73.3836C504.702 73.4949 504.702 73.607 504.702 73.7183C504.702 74.3319 504.713 74.9438 504.73 75.5548C507.668 71.595 510.146 67.3132 512.118 62.7922L512.291 62.4102L512.029 62.0844C508.739 57.9812 504.948 54.3073 500.746 51.1487C503.363 58.1593 504.703 65.5834 504.704 73.0683Z" fill="#061312"/>
<path d="M543.723 145.936C540.723 143.011 538.057 139.76 535.775 136.244C539.862 144.971 541.878 154.528 541.663 164.167C541.449 173.805 539.01 183.263 534.538 191.798C530.067 200.334 523.684 207.716 515.889 213.366C508.094 219.017 499.1 222.781 489.611 224.365L489.303 224.415L489.065 224.216C485.095 220.898 480.713 218.111 476.028 215.923C478.661 218.341 480.981 221.081 482.932 224.078L483.597 225.078L482.4 225.136C481.367 225.186 480.34 225.212 479.35 225.212C473.526 225.217 467.73 224.411 462.128 222.818C436.679 215.562 409.35 214.321 380.902 219.13C376.024 219.952 371.086 220.365 366.14 220.364C344.579 220.381 323.769 212.428 307.694 198.028C314.824 213.122 326.082 225.88 340.158 234.819C354.234 243.758 370.552 248.512 387.217 248.528C392.163 248.529 397.101 248.116 401.979 247.294C430.427 242.485 457.756 243.726 483.205 250.982C488.807 252.575 494.603 253.381 500.427 253.376C501.417 253.376 502.444 253.35 503.477 253.3L504.674 253.242L504.01 252.242C502.058 249.245 499.738 246.505 497.105 244.087C501.79 246.275 506.172 249.062 510.142 252.38L510.38 252.579L510.688 252.529C522.083 250.629 532.726 245.594 541.432 237.984C550.137 230.375 556.561 220.491 559.987 209.436C563.413 198.381 563.707 186.589 560.835 175.376C557.963 164.163 552.039 153.971 543.723 145.936Z" fill="#061312"/>
</g>
<path d="M250.214 175.056C246.857 171.431 245.116 165.991 246.901 161.381C249.575 166.044 253.808 169.609 258.852 171.446C260.8 172.147 263.039 172.724 264.103 174.503C264.717 175.654 264.868 176.997 264.523 178.256C264.176 179.5 263.671 180.695 263.02 181.811L263.018 182.133C258.278 180.756 253.571 178.681 250.214 175.056Z" fill="#2B877D"/>
<path d="M416.957 280.202C413.6 276.577 411.859 271.137 413.644 266.526C416.318 271.19 420.551 274.755 425.595 276.591C427.543 277.292 429.782 277.869 430.845 279.649C431.46 280.799 431.61 282.143 431.266 283.401C430.918 284.646 430.413 285.84 429.763 286.956L429.76 287.278C425.021 285.902 420.314 283.827 416.957 280.202Z" fill="#2B877D"/>
<path d="M495.583 348.064C493.237 343.713 492.91 338.01 495.79 333.993C497.214 339.179 500.422 343.692 504.847 346.735C506.558 347.902 508.582 349.022 509.167 351.012C509.475 352.28 509.285 353.618 508.637 354.75C507.99 355.868 507.203 356.898 506.295 357.815L506.212 358.126C501.967 355.605 497.928 352.416 495.583 348.064Z" fill="#2B877D"/>
<path d="M552.256 264.042C549.911 259.69 549.584 253.987 552.463 249.971C553.887 255.156 557.096 259.669 561.521 262.712C563.232 263.88 565.256 265 565.841 266.989C566.149 268.257 565.959 269.596 565.311 270.728C564.664 271.845 563.877 272.875 562.969 273.793L562.886 274.104C558.64 271.583 554.601 268.393 552.256 264.042Z" fill="#2B877D"/>
<path d="M181.769 296.43C179.424 292.079 179.096 286.376 181.976 282.359C183.4 287.545 186.608 292.058 191.033 295.101C192.744 296.268 194.768 297.388 195.353 299.378C195.661 300.646 195.472 301.984 194.823 303.116C194.176 304.234 193.389 305.264 192.481 306.181L192.398 306.493C188.153 303.971 184.114 300.782 181.769 296.43Z" fill="#9FE0D9"/>
<path d="M393.531 338.102C395.568 321.689 405.717 305.518 421.336 300.177C415.176 317.07 415.178 335.602 421.34 352.495C423.74 359.001 427.085 365.987 424.827 372.544C423.423 376.624 419.987 379.745 416.146 381.697C412.305 383.649 408.042 384.579 403.832 385.491L403.004 386.178C396.321 371.055 391.494 354.515 393.531 338.102Z" fill="#9FE0D9"/>
<path d="M421.491 300.487C412.395 310.701 406.742 323.527 405.334 337.144C404.979 340.07 405.086 343.034 405.652 345.926C406.294 348.726 407.673 351.302 409.645 353.387C411.444 355.369 413.514 357.187 414.801 359.572C415.442 360.803 415.816 362.155 415.899 363.541C415.982 364.927 415.771 366.314 415.281 367.613C414.145 370.88 411.904 373.544 409.623 376.072C407.09 378.879 404.415 381.754 403.338 385.476C403.208 385.926 402.517 385.697 402.647 385.247C404.521 378.772 410.792 375.095 413.783 369.263C415.178 366.542 415.764 363.383 414.456 360.511C413.312 357.999 411.179 356.123 409.34 354.132C407.387 352.126 405.953 349.672 405.165 346.982C404.454 344.128 404.233 341.173 404.511 338.245C405.032 331.642 406.586 325.162 409.116 319.042C411.965 312.042 415.987 305.582 421.009 299.941C421.32 299.592 421.8 300.141 421.491 300.487Z" fill="white"/>
<path d="M405.53 332.733C403.282 332.186 401.302 330.856 399.942 328.981C398.583 327.106 397.933 324.807 398.108 322.496C398.145 322.029 398.872 322.064 398.834 322.532C398.667 324.684 399.273 326.825 400.543 328.569C401.813 330.312 403.662 331.544 405.758 332.04C406.213 332.149 405.983 332.84 405.53 332.733Z" fill="white"/>
<path d="M408.6 352.503C412.66 350.074 415.656 346.201 416.993 341.656C417.125 341.206 417.815 341.435 417.683 341.884C416.284 346.611 413.157 350.636 408.927 353.154C408.524 353.394 408.199 352.742 408.6 352.503Z" fill="white"/>
<path d="M412.639 312.732C413.465 313.126 414.375 313.307 415.288 313.261C416.201 313.214 417.088 312.941 417.87 312.466C418.27 312.221 418.594 312.874 418.197 313.117C417.331 313.638 416.351 313.938 415.342 313.992C414.334 314.045 413.327 313.851 412.411 313.425C412.322 313.392 412.248 313.326 412.205 313.24C412.162 313.155 412.153 313.056 412.18 312.964C412.211 312.873 412.276 312.797 412.362 312.754C412.448 312.71 412.548 312.703 412.639 312.732Z" fill="white"/>
<path d="M468.944 329.492C468.698 329.652 468.453 329.812 468.207 329.978C464.918 332.146 461.809 334.578 458.913 337.25C458.686 337.453 458.459 337.662 458.238 337.871C451.328 344.384 445.685 352.125 441.596 360.702C439.972 364.116 438.609 367.649 437.52 371.271C436.015 376.273 434.782 381.816 431.804 385.907C431.499 386.337 431.166 386.748 430.81 387.137H403.904C403.843 387.107 403.781 387.082 403.72 387.051L402.646 387.1C402.689 386.91 402.738 386.713 402.781 386.522C402.805 386.411 402.836 386.301 402.86 386.19C402.879 386.116 402.897 386.042 402.91 385.975C402.916 385.95 402.922 385.925 402.928 385.907C402.94 385.839 402.959 385.778 402.971 385.716C403.241 384.615 403.519 383.514 403.806 382.413C403.806 382.406 403.806 382.406 403.812 382.4C406.016 374.015 408.938 365.74 413.02 358.173C413.143 357.946 413.265 357.712 413.401 357.484C415.259 354.084 417.393 350.841 419.779 347.788C421.091 346.121 422.486 344.522 423.959 342.996C427.774 339.061 432.182 335.752 437.022 333.19C446.673 328.083 457.845 326.127 468.158 329.246C468.422 329.326 468.68 329.406 468.944 329.492Z" fill="#9FE0D9"/>
<path d="M468.883 329.834C455.485 332.501 443.266 339.331 433.961 349.354C431.92 351.476 430.225 353.907 428.94 356.558C427.77 359.181 427.323 362.07 427.645 364.924C427.891 367.592 428.452 370.292 428.047 372.974C427.819 374.343 427.305 375.649 426.539 376.805C425.772 377.962 424.77 378.943 423.599 379.684C420.729 381.607 417.34 382.381 414 383.024C410.291 383.736 406.427 384.418 403.332 386.74C402.957 387.021 402.543 386.421 402.918 386.14C408.303 382.101 415.52 382.949 421.411 380.097C424.16 378.767 426.526 376.598 427.207 373.515C427.802 370.819 427.227 368.034 426.954 365.335C426.6 362.555 426.93 359.73 427.916 357.107C429.063 354.399 430.661 351.907 432.643 349.736C437.026 344.778 442.16 340.542 447.856 337.182C454.336 333.312 461.429 330.581 468.827 329.107C469.285 329.016 469.338 329.744 468.883 329.834Z" fill="white"/>
<path d="M436.768 345.95C435.302 344.157 434.519 341.9 434.56 339.583C434.601 337.265 435.463 335.038 436.991 333.298C437.302 332.947 437.861 333.414 437.55 333.766C436.123 335.383 435.321 337.458 435.287 339.616C435.254 341.774 435.991 343.873 437.366 345.535C437.664 345.896 437.065 346.309 436.768 345.95Z" fill="white"/>
<path d="M427.342 363.588C432.042 364.098 436.762 362.814 440.559 359.991C440.935 359.711 441.349 360.311 440.974 360.59C437.016 363.52 432.102 364.847 427.212 364.306C426.746 364.254 426.878 363.537 427.342 363.588Z" fill="white"/>
<path d="M454.46 334.271C454.883 335.083 455.5 335.777 456.257 336.29C457.014 336.804 457.886 337.122 458.796 337.214C459.262 337.26 459.129 337.977 458.666 337.931C457.661 337.824 456.699 337.473 455.861 336.907C455.024 336.341 454.337 335.579 453.862 334.686C453.81 334.605 453.79 334.508 453.808 334.414C453.825 334.32 453.877 334.235 453.954 334.178C454.033 334.124 454.131 334.103 454.225 334.12C454.32 334.137 454.404 334.191 454.46 334.271Z" fill="white"/>
<path d="M256.96 340.352L234.628 323.361L223.743 334.269L260.123 359.219L256.96 340.352Z" fill="#3B4544"/>
<path d="M277.787 387.137H354.176L351.497 378.437C334.892 372.413 344.219 359.464 328.424 351.549C289.789 332.19 274.832 274.42 280.49 251.583L255.172 250.51C255.172 250.51 220.207 350.02 277.787 387.137Z" fill="#3B4544"/>
<path d="M208.234 337.179C208.127 335.501 207.687 333.861 206.939 332.355C206.191 330.849 205.151 329.508 203.879 328.411C203.862 328.396 203.845 328.381 203.828 328.366L203.779 328.323C202.072 326.82 200.795 324.889 200.077 322.729L200.02 322.559L200.198 322.545C201.576 322.434 202.927 322.095 204.194 321.542C202.676 321.668 201.149 321.477 199.708 320.981L199.626 320.956L199.611 320.871C199.293 319.041 199.374 317.163 199.849 315.367C200.324 313.571 201.181 311.899 202.362 310.467C203.544 309.035 205.02 307.876 206.691 307.07C208.362 306.265 210.187 305.831 212.04 305.8C213.176 305.786 214.297 305.532 215.329 305.055C216.36 304.578 217.28 303.888 218.028 303.031L218.134 302.91C219.113 301.793 220.226 300.801 221.446 299.955L221.539 299.89L221.622 299.968C222.401 300.704 223.272 301.335 224.214 301.845C223.529 301.128 222.961 300.307 222.531 299.412L222.472 299.294L222.585 299.228C226.3 297.052 230.666 296.272 234.902 297.028C239.138 297.784 242.967 300.026 245.704 303.354C248.44 306.681 249.906 310.876 249.838 315.188C249.769 319.499 248.172 323.645 245.331 326.884C244.659 327.65 243.924 328.359 243.134 329.003C238.71 332.523 235.131 336.994 232.661 342.086C232.145 343.17 231.481 344.177 230.689 345.078C230.554 345.232 230.411 345.387 230.263 345.541L230.091 345.718L230.027 345.479C229.83 344.77 229.723 344.038 229.708 343.301C229.409 344.324 229.243 345.382 229.215 346.448L229.213 346.512L229.163 346.553C227.321 348.059 225.098 349.024 222.741 349.337C220.384 349.651 217.987 349.303 215.816 348.331C213.645 347.358 211.787 345.801 210.448 343.832C209.109 341.863 208.343 339.56 208.234 337.179Z" fill="#9FE0D9"/>
<path opacity="0.15" d="M210.235 342.106C210.258 342.57 210.306 343.032 210.38 343.49C209.128 341.564 208.409 339.341 208.293 337.047C208.276 336.695 208.24 336.345 208.19 335.997C209.406 337.813 210.112 339.923 210.235 342.106Z" fill="#061312"/>
<path opacity="0.15" d="M206.195 326.469C205.176 326.912 204.102 327.216 203.002 327.374C202.579 326.926 202.188 326.448 201.832 325.943C203.236 326.414 204.72 326.593 206.195 326.469Z" fill="#061312"/>
<path opacity="0.15" d="M201.49 322.244C201.376 323.356 201.407 324.478 201.581 325.583C200.972 324.654 200.487 323.65 200.136 322.596L200.08 322.427L200.258 322.412C200.671 322.377 201.082 322.321 201.49 322.244Z" fill="#061312"/>
<path opacity="0.15" d="M202.678 310.034C203.859 308.69 205.308 307.608 206.93 306.856C208.552 306.104 210.313 305.7 212.1 305.668C213.236 305.654 214.356 305.4 215.388 304.923C216.42 304.445 217.34 303.756 218.088 302.898L218.193 302.777C219.173 301.66 220.285 300.668 221.506 299.822L221.599 299.758L221.681 299.836C222.46 300.572 223.332 301.203 224.274 301.713C223.589 300.995 223.02 300.174 222.59 299.279L222.532 299.162L222.645 299.095C225.107 297.651 227.876 296.81 230.724 296.643C233.572 296.475 236.42 296.984 239.035 298.129C241.649 299.274 243.957 301.022 245.769 303.231C247.581 305.44 248.846 308.047 249.461 310.839C248.276 308.752 246.69 306.923 244.794 305.455C242.898 303.988 240.731 302.912 238.417 302.291C236.103 301.669 233.689 301.514 231.315 301.834C228.941 302.154 226.654 302.943 224.586 304.155L224.473 304.221L224.532 304.339C224.962 305.234 225.53 306.055 226.216 306.773C225.274 306.263 224.402 305.631 223.623 304.895L223.541 304.818L223.447 304.882C222.227 305.728 221.115 306.72 220.135 307.837L220.029 307.958C219.281 308.815 218.362 309.505 217.33 309.982C216.298 310.459 215.178 310.713 214.042 310.727C211.071 310.778 208.209 311.859 205.945 313.787C203.681 315.716 202.154 318.371 201.626 321.302C200.998 321.189 200.377 321.037 199.768 320.848L199.685 320.823L199.671 320.738C199.337 318.842 199.434 316.895 199.955 315.042C200.476 313.189 201.406 311.477 202.678 310.034Z" fill="#061312"/>
<path d="M188.289 227.277C195.854 219.926 200.182 209.296 200.182 198.08C200.182 198.006 200.182 197.932 200.181 197.858L200.18 197.649C200.178 190.318 202.118 183.117 205.803 176.783L206.093 176.285L206.505 176.686C209.703 179.79 213.392 182.34 217.422 184.235C214.282 181.393 211.651 177.507 209.236 172.173L209.121 171.92L209.295 171.704C213.034 167.04 217.737 163.243 223.079 160.574C228.422 157.906 234.279 156.429 240.246 156.245C246.213 156.061 252.148 157.175 257.645 159.51C263.141 161.845 268.067 165.346 272.085 169.771C274.535 172.494 277.53 174.669 280.875 176.154C284.22 177.639 287.84 178.401 291.499 178.39L292.016 178.388C296.793 178.387 301.553 178.972 306.189 180.13L306.542 180.219L306.53 180.584C306.41 184.037 306.742 187.491 307.514 190.858C307.788 187.672 308.562 184.549 309.806 181.604L309.964 181.212L310.365 181.345C323.514 185.718 334.68 194.639 341.864 206.51C349.049 218.381 351.782 232.428 349.574 246.135C347.366 259.842 340.362 272.314 329.816 281.317C319.27 290.32 305.87 295.267 292.016 295.272C288.738 295.272 285.465 294.999 282.232 294.454C263.377 291.267 245.265 292.089 228.398 296.899C224.685 297.954 220.844 298.488 216.984 298.485C216.328 298.485 215.647 298.468 214.963 298.435L214.17 298.396L214.61 297.733C215.903 295.747 217.441 293.931 219.185 292.328C216.08 293.779 213.176 295.626 210.545 297.825L210.387 297.957L210.183 297.923C202.631 296.664 195.577 293.327 189.808 288.284C184.038 283.241 179.781 276.69 177.51 269.363C175.239 262.036 175.044 254.221 176.948 246.789C178.851 239.358 182.777 232.603 188.289 227.277Z" fill="#9FE0D9"/>
<g opacity="0.15">
<path d="M226.184 159.166C227.609 161.537 229.362 163.692 231.391 165.569C228.486 164.202 225.754 162.491 223.254 160.472C224.213 159.999 225.19 159.564 226.184 159.166Z" fill="#061312"/>
<path d="M202.258 208.611C200.01 210.797 198.016 213.232 196.314 215.868C198.875 210.29 200.195 204.22 200.182 198.08C200.182 198.006 200.182 197.932 200.181 197.858L200.18 197.649C200.178 190.318 202.118 183.117 205.803 176.783L206.093 176.285L206.505 176.686C208.784 178.894 211.315 180.825 214.044 182.439C213.341 192.524 209.139 201.924 202.258 208.611Z" fill="#061312"/>
<path d="M214.15 178.983L214.15 179.192C214.151 179.266 214.151 179.34 214.151 179.414C214.151 179.821 214.143 180.226 214.132 180.631C212.185 178.007 210.543 175.169 209.236 172.173L209.121 171.92L209.295 171.704C211.476 168.984 213.988 166.549 216.773 164.456C215.039 169.102 214.15 174.023 214.15 178.983Z" fill="#061312"/>
<path d="M188.289 227.277C190.277 225.339 192.044 223.184 193.557 220.854C190.848 226.638 189.512 232.972 189.654 239.36C189.796 245.748 191.413 252.016 194.376 257.674C197.34 263.331 201.57 268.223 206.736 271.968C211.902 275.713 217.863 278.208 224.152 279.257L224.357 279.291L224.515 279.159C227.145 276.96 230.05 275.113 233.155 273.662C231.41 275.265 229.873 277.081 228.579 279.067L228.139 279.73L228.932 279.769C229.616 279.802 230.297 279.819 230.953 279.819C234.813 279.822 238.654 279.288 242.367 278.233C259.234 273.423 277.347 272.601 296.201 275.788C299.434 276.333 302.707 276.606 305.985 276.606C320.275 276.617 334.067 271.346 344.721 261.802C339.995 271.806 332.534 280.262 323.205 286.186C313.875 292.111 303.061 295.261 292.016 295.272C288.738 295.272 285.465 294.999 282.232 294.454C263.378 291.267 245.265 292.089 228.398 296.899C224.685 297.954 220.844 298.488 216.984 298.485C216.328 298.485 215.647 298.468 214.963 298.435L214.17 298.396L214.61 297.733C215.903 295.747 217.441 293.931 219.185 292.329C216.08 293.779 213.176 295.626 210.545 297.825L210.387 297.957L210.183 297.924C202.631 296.664 195.577 293.327 189.808 288.284C184.038 283.241 179.781 276.69 177.51 269.363C175.239 262.036 175.044 254.221 176.948 246.789C178.851 239.358 182.777 232.603 188.289 227.277Z" fill="#061312"/>
</g>
<path d="M29.3992 342.371C22.7192 342.37 16.2558 339.996 11.1583 335.669C6.0608 331.343 2.65949 325.344 1.5591 318.741L1.53635 318.602L1.62624 318.494C3.12432 316.693 4.38307 314.706 5.37099 312.581C4.27901 313.775 3.0419 314.827 1.68861 315.712L1.23694 316.014L1.2109 315.471C1.18815 315.002 1.17677 314.537 1.17677 314.088C1.17449 311.447 1.53815 308.818 2.25734 306.277C5.53389 294.736 6.09417 282.342 3.92277 269.44C3.55174 267.228 3.36531 264.989 3.36542 262.745C3.36875 253.266 6.73917 244.096 12.8732 236.88C19.0072 229.663 27.5041 224.87 36.8426 223.36C46.1811 221.849 55.7511 223.719 63.8392 228.635C71.9272 233.551 78.005 241.192 80.9843 250.19L81.0749 250.464L80.8078 250.572C78.8013 251.424 76.6735 251.953 74.5027 252.14C76.7969 252.669 79.1501 252.896 81.5027 252.814L81.7511 252.805L81.8117 253.047C82.6005 256.219 82.9991 259.476 82.9986 262.745L82.9972 263.099C82.9897 265.603 83.5089 268.08 84.5207 270.369C85.5326 272.658 87.0144 274.707 88.8697 276.384C91.8845 279.133 94.2694 282.504 95.8601 286.265C97.4509 290.026 98.2098 294.087 98.0847 298.17C97.9595 302.253 96.9533 306.261 95.1352 309.917C93.3171 313.573 90.7303 316.791 87.5528 319.349L87.4057 319.468L87.2332 319.39C83.5989 317.737 80.9513 315.937 79.015 313.788C80.3059 316.546 82.0438 319.07 84.1581 321.258L84.4314 321.54L84.0921 321.739C79.777 324.26 74.871 325.588 69.8759 325.586L69.7336 325.586C69.6833 325.585 69.6326 325.585 69.5824 325.585C65.8931 325.546 62.2332 326.246 58.8174 327.644C55.4016 329.041 52.2986 331.108 49.6904 333.723C47.0531 336.446 43.8997 338.613 40.4153 340.099C36.9308 341.584 33.1856 342.356 29.3992 342.371Z" fill="#9FE0D9"/>
<path d="M19.4115 386.936C19.289 386.936 19.1706 386.891 19.0781 386.811C18.9856 386.73 18.9252 386.619 18.9079 386.497C18.8863 386.345 16.7666 371.024 18.6703 350.663C20.4284 331.858 26.0742 304.773 42.987 282.529C43.0275 282.475 43.0781 282.431 43.136 282.397C43.1938 282.363 43.2577 282.341 43.324 282.332C43.3904 282.323 43.4578 282.327 43.5225 282.344C43.5873 282.361 43.648 282.391 43.7012 282.432C43.7545 282.472 43.7992 282.523 43.8328 282.581C43.8665 282.639 43.8884 282.703 43.8973 282.77C43.9062 282.836 43.902 282.904 43.8848 282.969C43.8677 283.033 43.8379 283.094 43.7973 283.148C27.0306 305.2 21.4303 332.086 19.6846 350.758C17.792 371.001 19.895 386.202 19.9165 386.353C19.9267 386.426 19.9213 386.499 19.9006 386.57C19.8799 386.64 19.8444 386.705 19.7965 386.76C19.7487 386.815 19.6895 386.859 19.6231 386.89C19.5567 386.92 19.4845 386.936 19.4115 386.936Z" fill="#3B4544"/>
<path d="M27.8662 311.942C27.7586 311.942 27.6538 311.908 27.5667 311.845C27.4796 311.782 27.4147 311.692 27.3814 311.59C27.3482 311.487 27.3481 311.377 27.3813 311.274C27.4145 311.172 27.4793 311.082 27.5663 311.019C32.3855 307.75 37.5915 305.094 43.0646 303.112C51.6153 299.975 64.6179 297.131 78.0039 301.4C78.0678 301.42 78.1271 301.453 78.1785 301.496C78.2298 301.539 78.2721 301.592 78.303 301.652C78.3339 301.711 78.3527 301.777 78.3584 301.844C78.3641 301.91 78.3566 301.978 78.3363 302.042C78.316 302.106 78.2832 302.165 78.24 302.216C78.1967 302.268 78.1438 302.31 78.0842 302.341C78.0246 302.372 77.9596 302.39 77.8928 302.396C77.826 302.401 77.7588 302.394 77.695 302.373C64.5833 298.191 51.8164 300.988 43.4149 304.071C38.0297 306.019 32.9072 308.63 28.1652 311.845C28.0784 311.908 27.9737 311.942 27.8662 311.942Z" fill="#3B4544"/>
<path d="M82.4629 290.759C83.0511 290.598 83.597 290.31 84.0621 289.915C84.5273 289.52 84.9004 289.028 85.1551 288.473C85.4098 287.918 85.54 287.314 85.5365 286.703C85.533 286.092 85.3959 285.489 85.1347 284.937L94.1217 255.573L87.5115 254.26L79.292 283.042C78.3956 283.543 77.7137 284.357 77.3756 285.328C77.0375 286.299 77.0666 287.361 77.4575 288.312C77.8483 289.263 78.5738 290.038 79.4963 290.489C80.4188 290.94 81.4744 291.036 82.4629 290.759Z" fill="#D19479"/>
<path d="M94.6454 246.994C93.6914 246.615 92.6414 246.551 91.6487 246.812V246.818C91.314 246.898 90.9902 247.019 90.6841 247.177C90.3486 247.342 90.0348 247.548 89.75 247.791C89.1338 248.303 88.6579 248.964 88.3669 249.712L83.9871 257.36C83.8612 257.577 83.784 257.818 83.761 258.068C83.7379 258.318 83.7695 258.57 83.8536 258.807C83.9358 259.044 84.0683 259.261 84.2421 259.443C84.416 259.624 84.627 259.766 84.8606 259.858L85.8069 260.229L90.302 261.998L91.958 262.655L93.0742 263.093C93.3074 263.185 93.5578 263.225 93.8082 263.212C94.0586 263.198 94.303 263.13 94.5248 263.013C94.7466 262.896 94.9405 262.732 95.0933 262.533C95.246 262.333 95.3539 262.103 95.4097 261.858L97.3873 253.293C97.8551 252.093 97.8291 250.756 97.3152 249.575C96.8012 248.395 95.8411 247.467 94.6454 246.994Z" fill="#3B4544"/>
<path d="M107.67 379.124H112.247L114.424 361.436H107.67V379.124Z" fill="#D19479"/>
<path d="M105.255 387.07H108.537L109.122 383.965L110.623 387.07H119.326C119.743 387.07 120.15 386.937 120.486 386.689C120.822 386.441 121.07 386.092 121.194 385.693C121.318 385.294 121.312 384.865 121.176 384.47C121.04 384.075 120.781 383.734 120.438 383.496L113.488 378.685V375.546L106.177 375.984L105.255 387.07Z" fill="#232929"/>
<path d="M63.1672 370.025L67.103 372.365L77.9797 358.264L72.1707 354.811L63.1672 370.025Z" fill="#D19479"/>
<path d="M57.0457 375.625L59.8682 377.303L61.9524 374.932L61.6624 378.369L69.1485 382.818C69.5073 383.032 69.9248 383.125 70.34 383.083C70.7551 383.042 71.1462 382.869 71.4562 382.589C71.7662 382.309 71.9787 381.937 72.0629 381.528C72.147 381.118 72.0984 380.692 71.924 380.312L68.3943 372.622L69.9921 369.922L63.4814 366.561L57.0457 375.625Z" fill="#232929"/>
<path d="M109.713 266.024L111.937 280.231L90.811 280.51L93.5912 266.86L109.713 266.024Z" fill="#D19479"/>
<path d="M112.018 280.052L118.052 294.717L118.491 333.935L113.342 371.381H107.644L105.31 334.546L99.5672 309.342L93.9038 335.702L76.2944 361.504H67.6414L83.55 333.071L85.3911 302.099C85.3911 302.099 84.2436 288.96 90.1165 281.206L91.546 277.067L112.018 280.052Z" fill="#232929"/>
<path d="M112.31 252.94C112.298 252.812 112.28 252.679 112.256 252.551C111.799 249.486 110.149 246.726 107.667 244.877C105.186 243.028 102.074 242.239 99.0132 242.684C96.1388 243.116 93.5203 244.583 91.6488 246.812V246.818C91.5517 246.934 91.4607 247.055 91.3697 247.177C91.2059 247.383 91.0543 247.602 90.9087 247.821C89.5938 249.812 88.9166 252.158 88.9675 254.545V254.551C88.9866 255.471 89.1148 256.385 89.3497 257.275C89.7537 258.83 90.0717 260.407 90.3021 261.998C90.4598 263.008 90.5811 263.998 90.6721 264.965C90.7267 265.451 90.7692 265.932 90.8056 266.4V266.406C90.9876 268.722 91.0482 270.801 91.1028 272.412C91.1271 273.288 91.1513 274.017 91.1938 274.577C91.1948 274.613 91.1989 274.65 91.2059 274.686C91.2525 275.062 91.4135 275.414 91.667 275.695C91.6982 275.735 91.7327 275.771 91.7701 275.805C92.0392 276.047 92.3645 276.219 92.7164 276.303C92.8383 276.328 92.9622 276.34 93.0865 276.34H93.1229L96.6595 274.686L99.4499 273.385L108.919 268.959C109.307 268.951 109.684 268.825 109.998 268.597C110.312 268.369 110.55 268.05 110.678 267.683V267.677C110.691 267.628 110.709 267.579 110.721 267.525C111.23 265.512 112.134 263.354 112.456 259.883C112.498 259.384 112.535 258.867 112.553 258.314V258.308C112.606 256.515 112.525 254.721 112.31 252.94Z" fill="#3B4544"/>
<path d="M99.1589 240.762C104.092 240.762 108.091 236.754 108.091 231.81C108.091 226.866 104.092 222.858 99.1589 222.858C94.2258 222.858 90.2268 226.866 90.2268 231.81C90.2268 236.754 94.2258 240.762 99.1589 240.762Z" fill="#D19479"/>
<path d="M89.6226 245.724C87.741 245.726 85.9371 246.476 84.6066 247.81C83.2761 249.143 82.5276 250.951 82.5251 252.837V267.579C82.5245 269.236 83.102 270.842 84.1577 272.117C85.2135 273.393 86.6809 274.259 88.3062 274.564H88.3123C88.7444 274.645 89.183 274.686 89.6226 274.686H99.4498V245.724H89.6226Z" fill="#2B877D"/>
<path d="M89.75 247.177V257.931C89.75 258.26 89.8804 258.575 90.1125 258.808C90.3445 259.041 90.6593 259.171 90.9875 259.171C91.3157 259.171 91.6305 259.041 91.8626 258.808C92.0946 258.575 92.225 258.26 92.225 257.931V247.177H89.75Z" fill="#3B4544"/>
<path d="M95.2035 264.965H88.0089C87.8037 264.965 87.6006 265.006 87.4111 265.085C87.2216 265.164 87.0495 265.279 86.9047 265.425C86.7598 265.571 86.6451 265.744 86.5671 265.934C86.4891 266.124 86.4493 266.328 86.45 266.534V270.844C86.4496 271.259 86.6135 271.657 86.9058 271.951C87.1981 272.245 87.5948 272.411 88.0089 272.412H95.2035C95.6183 272.411 96.0158 272.246 96.3091 271.952C96.6023 271.658 96.7676 271.259 96.7686 270.844V266.534C96.7686 266.328 96.7281 266.124 96.6495 265.933C96.5708 265.743 96.4555 265.57 96.3102 265.424C96.1649 265.279 95.9923 265.163 95.8024 265.084C95.6125 265.006 95.409 264.965 95.2035 264.965Z" fill="#3B4544"/>
<path d="M108.494 263.601C110.456 261.106 111.492 258.004 111.424 254.828C111.424 248.44 107.627 243.244 102.961 243.244C100.456 243.244 98.0956 244.744 96.4856 247.36L97.1883 247.795C98.6446 245.428 100.749 244.071 102.961 244.071C107.172 244.071 110.598 248.897 110.598 254.828C110.667 257.809 109.7 260.721 107.864 263.067L108.494 263.601Z" fill="#2B877D"/>
<path d="M127.959 285.23C128.229 284.683 128.375 284.082 128.389 283.471C128.402 282.861 128.282 282.254 128.036 281.695C127.791 281.136 127.426 280.637 126.967 280.235C126.508 279.833 125.967 279.536 125.382 279.366L109.408 253.153L104.044 257.241L120.092 282.493C119.872 283.497 120.028 284.548 120.529 285.446C121.03 286.343 121.842 287.025 122.812 287.363C123.782 287.7 124.841 287.67 125.79 287.277C126.738 286.884 127.51 286.156 127.959 285.23Z" fill="#D19479"/>
<path d="M114.955 256.351L112.256 252.551L110.812 250.52L109.872 249.195C109.576 248.612 109.166 248.094 108.664 247.675C107.809 246.958 106.733 246.557 105.617 246.542C104.501 246.527 103.415 246.897 102.54 247.591C101.665 248.285 101.056 249.26 100.814 250.352C100.573 251.443 100.715 252.585 101.215 253.584L104.018 261.944C104.099 262.182 104.23 262.399 104.402 262.582C104.574 262.765 104.784 262.908 105.016 263.003C105.248 263.097 105.498 263.141 105.749 263.13C106 263.119 106.245 263.055 106.468 262.941L107.372 262.479L108.798 261.749L110.078 261.099H110.084L112.456 259.883L113.263 259.475L114.33 258.928C114.553 258.813 114.749 258.651 114.904 258.453C115.059 258.255 115.17 258.026 115.229 257.782C115.288 257.538 115.294 257.284 115.247 257.037C115.2 256.79 115.1 256.556 114.955 256.351Z" fill="#3B4544"/>
<path d="M537.059 387.663H1.73458C1.66119 387.663 1.58847 387.649 1.5206 387.621C1.45272 387.593 1.39102 387.552 1.33904 387.5C1.28706 387.448 1.24582 387.386 1.21767 387.319C1.18953 387.251 1.17505 387.178 1.17505 387.104C1.17505 387.031 1.18953 386.958 1.21767 386.89C1.24582 386.822 1.28706 386.76 1.33904 386.708C1.39102 386.656 1.45272 386.615 1.5206 386.587C1.58847 386.559 1.66119 386.545 1.73458 386.545H537.059C537.207 386.545 537.349 386.604 537.454 386.709C537.558 386.814 537.617 386.956 537.617 387.104C537.617 387.252 537.558 387.395 537.454 387.499C537.349 387.604 537.207 387.663 537.059 387.663Z" fill="#78D4C9"/>
<path d="M284.894 340.81C282.549 336.459 282.222 330.755 285.101 326.739C286.525 331.924 289.734 336.438 294.159 339.481C295.87 340.648 297.894 341.768 298.479 343.757C298.787 345.026 298.597 346.364 297.949 347.496C297.302 348.614 296.515 349.644 295.607 350.561L295.524 350.872C291.278 348.351 287.239 345.162 284.894 340.81Z" fill="#9FE0D9"/>
<path d="M141.125 230.773C138.78 226.421 138.453 220.718 141.332 216.702C142.756 221.887 145.965 226.4 150.39 229.443C152.1 230.61 154.125 231.73 154.71 233.72C155.018 234.988 154.828 236.326 154.18 237.459C153.533 238.576 152.746 239.606 151.838 240.523L151.755 240.835C147.509 238.313 143.47 235.124 141.125 230.773Z" fill="#9FE0D9"/>
<path d="M93.7111 224.506V224.513C93.712 224.902 93.6624 225.29 93.5637 225.667C93.548 225.733 93.5291 225.802 93.5072 225.868V225.871C93.2967 226.544 92.9336 227.158 92.4464 227.667C91.9591 228.175 91.361 228.564 90.6989 228.802C90.6017 228.839 90.5013 228.871 90.4009 228.899C90.1893 228.961 89.9732 229.005 89.7545 229.031C89.5581 229.059 89.3599 229.073 89.1615 229.072C89.0064 229.073 88.8514 229.065 88.6971 229.05C88.336 229.013 87.9808 228.932 87.6397 228.808C87.5863 228.792 87.5339 228.774 87.4828 228.751C87.4572 228.742 87.432 228.732 87.4075 228.72C86.8383 228.481 86.3234 228.129 85.8942 227.685C85.4649 227.24 85.1303 226.713 84.9105 226.135C84.6907 225.558 84.5904 224.941 84.6156 224.323C84.6409 223.705 84.7912 223.099 85.0574 222.541L85.0605 222.538C85.2836 222.07 85.5861 221.644 85.9548 221.28C86.8058 220.429 87.9593 219.952 89.1615 219.953C89.2212 219.952 89.2809 219.954 89.3403 219.959C90.0327 219.988 90.7095 220.174 91.3194 220.504C91.9293 220.833 92.4564 221.298 92.8608 221.862C93.2108 222.348 93.4605 222.9 93.595 223.484C93.672 223.819 93.7109 224.162 93.7111 224.506Z" fill="#232929"/>
<path d="M88.4607 221.741C88.0607 220.23 87.1964 218.884 85.9902 217.893C84.784 216.902 83.2972 216.317 81.7405 216.22C80.1838 216.123 78.6362 216.52 77.3171 217.354C75.998 218.188 74.9744 219.417 74.3912 220.867C73.4139 223.297 73.7722 226.054 73.1868 228.607C72.5965 230.925 71.264 232.985 69.3935 234.472C67.523 235.958 65.2176 236.789 62.8308 236.837L71.6859 240.413C72.6314 240.897 73.6915 241.112 74.7506 241.035C76.2914 240.773 77.3635 239.298 77.7976 237.794C78.2317 236.289 78.1964 234.691 78.4712 233.15C78.8278 231.255 79.6398 229.477 80.837 227.968C82.0342 226.46 83.5804 225.266 85.3416 224.492C86.3385 224.065 87.4465 223.743 88.1515 222.917C88.8565 222.092 88.8172 220.535 87.7955 220.171" fill="#232929"/>
<path d="M102.81 221.777C101.609 219.146 98.4399 219.682 95.5743 220.029C94.1433 220.25 92.7878 220.817 91.625 221.682C90.4623 222.547 89.5275 223.683 88.9015 224.991C87.6767 227.643 87.4425 230.647 88.2417 233.457C88.6703 235.371 89.6934 237.1 91.1639 238.395C92.6773 239.614 99.7917 242.499 100.384 240.015C99.6436 243.256 101.133 242.748 103.338 245.232C104.48 241.794 105.015 235.317 106.157 231.879L106.673 230.326C107.035 229.236 107.398 228.143 107.66 227.024C107.989 225.618 108.115 224.005 107.244 222.855C106.372 221.705 104.177 221.66 103.736 223.035" fill="#232929"/>
<path d="M101.373 232.724L100.991 230.288C101.25 227.258 100.827 222.439 102.811 221.777L104.024 222.993C103.256 223.249 101.797 227.78 101.373 232.724Z" fill="#38AEA1"/>
</g>
<defs>
<clipPath id="clip0_225_1949">
<rect width="566" height="387.326" fill="white" transform="translate(0 0.336853)"/>
</clipPath>
</defs>
</svg>
