<svg width="774" height="773" viewBox="0 0 774 773" fill="none" xmlns="http://www.w3.org/2000/svg">
<g clip-path="url(#clip0_259_438)">
<path d="M8.4375 386.594C8.4375 436.301 18.2281 485.522 37.2503 531.445C56.2725 577.369 84.1537 619.096 119.302 654.245C154.451 689.393 196.178 717.274 242.101 736.297C288.025 755.319 337.246 765.109 386.953 765.109C436.661 765.109 485.881 755.319 531.805 736.297C577.728 717.274 619.456 689.393 654.604 654.245C689.753 619.096 717.634 577.369 736.656 531.445C755.678 485.522 765.469 436.301 765.469 386.594C765.469 336.886 755.678 287.666 736.656 241.742C717.634 195.818 689.753 154.091 654.604 118.943C619.456 83.7944 577.728 55.9131 531.805 36.8909C485.881 17.8687 436.661 8.07813 386.953 8.07812C337.246 8.07813 288.025 17.8687 242.101 36.8909C196.178 55.9131 154.451 83.7944 119.302 118.943C84.1537 154.091 56.2725 195.818 37.2503 241.742C18.2281 287.666 8.4375 336.886 8.4375 386.594Z" fill="#9FE0D9"/>
<path d="M386.953 772.844C334.844 772.844 284.219 762.609 236.563 742.453C190.547 723 149.219 695.109 113.75 659.641C78.2813 624.172 50.3906 582.844 30.9375 536.828C10.7813 489.172 0.546875 438.625 0.546875 386.438C0.546875 334.25 10.7813 283.703 30.9375 236.047C50.3906 190.031 78.2813 148.703 113.75 113.234C149.219 77.7656 190.547 49.875 236.563 30.4219C284.219 10.2656 334.766 0.03125 386.953 0.03125C439.141 0.03125 489.687 10.5 537.344 30.6563C583.359 50.1094 624.687 78 660.156 113.469C695.625 148.937 723.516 190.266 742.969 236.281C763.125 283.938 773.359 334.484 773.359 386.672C773.359 438.859 763.125 489.406 742.969 537.063C723.516 583.078 695.625 624.406 660.156 659.875C624.687 695.344 583.359 723.234 537.344 742.688C489.687 762.688 439.141 772.844 386.953 772.844ZM386.953 15.8906C336.875 15.8906 288.359 25.6563 242.656 45.0313C198.516 63.7031 158.906 90.4219 124.844 124.484C90.7813 158.547 64.0625 198.156 45.3906 242.297C26.0938 288 16.25 336.516 16.25 386.594C16.25 436.672 26.0156 485.188 45.3906 530.891C64.0625 575.031 90.7813 614.641 124.844 648.703C158.906 682.766 198.516 709.484 242.656 728.156C288.359 747.453 336.875 757.297 386.953 757.297C437.031 757.297 485.547 747.531 531.25 728.156C575.391 709.484 615 682.766 649.062 648.703C683.125 614.641 709.844 575.031 728.516 530.891C747.812 485.188 757.656 436.672 757.656 386.594C757.656 336.516 747.891 288 728.516 242.297C709.844 198.156 683.125 158.547 649.062 124.484C615 90.4219 575.391 63.7031 531.25 45.0313C485.547 25.7344 437.031 15.8906 386.953 15.8906Z" fill="#9FE0D9"/>
<path d="M397.5 8.625C351.016 63.7031 308.906 136.203 409.297 136.203C571.328 136.203 529.141 255.578 347.734 264.094C166.25 272.609 217.422 400.578 319.766 413.312C382.734 421.203 405.234 453.234 413.359 483.703V484.875C413.359 501.594 415 517.531 417.891 532.297V532.609C417.891 534.484 418.281 536.203 418.984 537.688C430.078 588.078 456.406 598 487.188 598C527.969 598 555.313 512.922 560.234 466.125C567.813 395.188 639.844 395.656 635.313 306.594C633.984 280.891 701.172 279.953 751.094 283.938C707.266 128.156 566.25 13.2344 397.5 8.625Z" fill="#1F6059"/>
<path d="M487.109 605.969C458.672 605.969 424.453 598.469 411.406 540.265C410.547 538.078 410.078 535.656 410 533.156C407.031 517.375 405.469 501.203 405.469 484.953V484.719C395.312 448 366.875 427.14 318.75 421.125C291.484 417.687 266.094 406.359 247.344 389.172C228.75 372.14 218.594 350.89 219.375 330.812C219.922 316.75 225.937 296.594 251.719 280.344C273.906 266.359 306.094 258.312 347.344 256.359C407.109 253.547 444.219 239.25 464.844 227.687C488.75 214.328 502.812 197.531 502.422 182.844C502.031 164.953 477.344 144.094 409.297 144.094C373.828 144.094 351.719 135.031 343.437 117.219C336.953 103.234 339.531 84.4842 351.172 61.5936C359.766 44.7186 373.359 25.1873 391.562 3.62481C393.125 1.82793 395.391 0.812305 397.734 0.89043C439.922 2.06231 481.25 9.95293 520.547 24.4061C558.594 38.3904 594.062 58.3123 626.016 83.5467C657.656 108.547 685.078 138.156 707.578 171.594C730.391 205.578 747.578 242.687 758.594 281.984C759.297 284.406 758.75 287.062 757.109 289.094C755.469 291.047 752.969 292.14 750.469 291.906C696.172 287.531 655.859 291.281 645.156 301.672C643.203 303.547 643.047 305.109 643.047 306.359C645.703 358.703 622.734 383.078 602.422 404.562C586.328 421.672 571.094 437.765 567.969 467.062C565.078 494.328 555.703 528 544.141 553C528.125 587.687 508.437 605.969 487.109 605.969ZM401.016 16.5154C364.922 59.8748 349.531 93.2342 357.578 110.578C364.453 125.265 389.453 128.39 409.297 128.39C442.891 128.39 469.609 133.312 488.672 143C507.187 152.453 517.656 166.437 517.969 182.453C518.437 203.39 501.875 224.875 472.422 241.281C450.312 253.625 410.859 268.937 348.047 271.906C278.516 275.187 236.25 297.375 234.922 331.359C234.297 346.828 242.656 363.703 257.812 377.609C274.219 392.687 296.562 402.609 320.625 405.578C375.469 412.453 409.219 438.078 420.781 481.75C420.937 482.375 421.016 483.078 421.016 483.781V484.953C421.016 500.422 422.5 515.89 425.391 530.89C425.469 531.359 425.547 531.906 425.547 532.375V532.687C425.547 533.39 425.703 534.015 425.937 534.562C426.172 535.031 426.328 535.578 426.484 536.125C436.328 581.047 457.891 590.265 487.109 590.265C506.719 590.265 522.422 562.765 530 546.437C543.203 517.844 550.391 484.875 552.422 465.422C556.094 430.89 573.906 412.062 591.016 393.859C610.937 372.765 629.766 352.765 627.422 307.14C627.109 300.89 629.453 295.109 634.219 290.5C642.812 282.219 659.375 277.219 685 275.344C703.828 273.937 724.062 274.562 740.312 275.5C729.687 241.75 714.375 209.797 694.531 180.265C672.969 148.156 646.641 119.719 616.25 95.7342C585.625 71.5154 551.562 52.4529 515 39.0154C478.516 25.5779 440.156 17.9998 401.016 16.5154Z" fill="#1F6059"/>
</g>
<defs>
<clipPath id="clip0_259_438">
<rect width="774" height="773" fill="white"/>
</clipPath>
</defs>
</svg>
